<?xml version="1.0" encoding="UTF-8"?><svg id="a" xmlns="http://www.w3.org/2000/svg" viewBox="0 0 893.05 263.59"><defs><style>.b{fill:#fff;}</style></defs><g><path class="b" d="M149.53,69.09h23.45c6.16,0,11.13,1.99,14.92,5.98,3.78,3.99,5.68,9.24,5.68,15.75s-1.89,11.75-5.68,15.7c-3.78,3.95-8.76,5.93-14.92,5.93h-15.75v27.13h-7.7V69.09Zm7.7,7.4v28.56h10.25c2.02,0,3.81-.09,5.37-.26,1.55-.17,3.05-.44,4.49-.81,1.44-.36,2.64-.89,3.61-1.57,.97-.68,1.83-1.55,2.6-2.61,.76-1.06,1.31-2.33,1.65-3.82,.34-1.49,.51-3.21,.51-5.17,0-4.55-1.13-8.08-3.39-10.58-2.26-2.5-5.46-3.75-9.59-3.75h-15.49Z"/><path class="b" d="M212.92,139.59V65.35h7.53v30.03h.35c.23-.85,.56-1.71,.99-2.58,.42-.87,1.07-1.81,1.94-2.82,.86-1.01,1.85-1.91,2.95-2.7,1.1-.79,2.52-1.45,4.25-1.97,1.73-.52,3.61-.78,5.63-.78,5.08,0,9.17,1.54,12.28,4.63,3.11,3.08,4.66,7.52,4.66,13.31v37.14h-7.61v-34.53c0-4.3-1.02-7.62-3.06-9.96-2.04-2.34-4.89-3.51-8.56-3.51-4.4,0-7.8,1.65-10.21,4.96-2.41,3.31-3.61,7.52-3.61,12.64v30.41h-7.53Z"/><path class="b" d="M316.35,85.36l-18.17,54.79-1.28,3.8c-.85,2.37-1.63,4.31-2.33,5.81-.7,1.5-1.68,3.09-2.93,4.77-1.25,1.68-2.77,2.91-4.58,3.7-1.81,.79-3.93,1.19-6.36,1.19-1.58,0-3.2-.13-4.84-.38v-6.83c.85,.16,2.07,.24,3.65,.24,2.82,0,4.99-.73,6.51-2.18,1.53-1.45,2.68-3.7,3.48-6.74l.79-3.04-18.75-55.12h8.4l14.04,45.83h.27l14.08-45.83h8.01Z"/><path class="b" d="M332.82,100.78c0-5.34,1.75-9.39,5.26-12.14,3.51-2.75,7.85-4.13,13.05-4.13,2.61,0,5.02,.38,7.22,1.14,2.2,.76,4.06,1.79,5.59,3.11,1.53,1.31,2.7,2.89,3.52,4.72s1.23,3.84,1.23,6.02h-7.04c-.12-1.39-.56-2.7-1.32-3.91-.76-1.22-1.98-2.25-3.65-3.11-1.67-.85-3.64-1.28-5.9-1.28-2.08,0-3.92,.33-5.5,1-1.58,.66-2.84,1.67-3.76,3.01-.92,1.34-1.39,2.9-1.39,4.67,0,1.27,.24,2.36,.73,3.27,.48,.92,1.03,1.64,1.65,2.16,.62,.52,1.52,1.02,2.71,1.49s2.16,.79,2.93,.95c.76,.16,1.88,.4,3.34,.71,.12,0,.23,.02,.33,.05,.1,.03,.21,.05,.33,.05s.23,.05,.35,.14c1.76,.32,3.29,.64,4.58,.97,1.29,.33,2.65,.76,4.09,1.28,1.44,.52,2.64,1.15,3.61,1.87,.97,.73,1.89,1.6,2.75,2.61,.86,1.01,1.5,2.21,1.89,3.61s.59,2.94,.59,4.65c0,5.25-1.8,9.36-5.41,12.33-3.61,2.97-8.37,4.46-14.3,4.46-5.49,0-9.92-1.3-13.31-3.91-3.39-2.61-5.08-6.29-5.08-11.03h7.39c.73,5.41,4.52,8.11,11.35,8.11,2.7,0,4.97-.41,6.8-1.23,1.83-.82,3.15-1.87,3.94-3.15,.79-1.28,1.19-2.81,1.19-4.58,0-1.2-.23-2.26-.68-3.18-.46-.92-1.01-1.65-1.65-2.21-.64-.55-1.61-1.08-2.88-1.59-1.28-.51-2.39-.87-3.34-1.09-.95-.22-2.31-.54-4.07-.95-2.32-.51-4.15-.94-5.5-1.3-1.35-.36-2.87-.94-4.58-1.73-1.7-.79-3-1.67-3.89-2.63-.9-.96-1.64-2.21-2.24-3.75-.6-1.53-.9-3.36-.9-5.48Z"/><path class="b" d="M390.31,68.48c0-1.77,.55-3.23,1.65-4.39,1.1-1.15,2.44-1.73,4.03-1.73s3,.58,4.07,1.73c1.07,1.15,1.61,2.62,1.61,4.39,0,1.2-.24,2.26-.73,3.18-.48,.92-1.17,1.62-2.05,2.11-.88,.49-1.85,.74-2.9,.74-1.58,0-2.93-.57-4.03-1.71-1.1-1.14-1.65-2.58-1.65-4.32Zm1.94,71.11v-54.22h7.53v54.22h-7.53Z"/><path class="b" d="M443.92,84.51c6.28,0,11.4,2.1,15.36,6.31,3.96,4.21,5.94,9.99,5.94,17.36v8.59c0,7.37-2,13.16-5.98,17.39-3.99,4.22-9.1,6.33-15.31,6.33s-11.51-2.09-15.45-6.29c-3.93-4.19-5.9-10-5.9-17.43v-8.59c0-7.12,2.01-12.84,6.03-17.17,4.02-4.33,9.12-6.5,15.31-6.5Zm-13.86,24.57v6.78c0,3.57,.55,6.66,1.65,9.25,1.1,2.59,2.69,4.6,4.77,6.02,2.08,1.42,4.56,2.13,7.44,2.13,4.31,0,7.68-1.57,10.1-4.7s3.63-7.37,3.63-12.71v-6.78c0-5.28-1.24-9.5-3.72-12.64-2.48-3.15-5.81-4.72-9.99-4.72s-7.54,1.59-10.08,4.77c-2.54,3.18-3.81,7.38-3.81,12.59Z"/><path class="b" d="M489.31,85.36v-13.61h7.53v13.61h11.44v6.93h-11.44v32.59c0,2.25,.26,3.96,.77,5.15,.51,1.19,1.35,2.01,2.51,2.47,1.16,.46,2.84,.69,5.04,.69,1.35,0,2.64-.06,3.87-.19v6.69c-1.17,.25-3.11,.38-5.81,.38-2.91,0-5.27-.29-7.11-.88s-3.24-1.57-4.22-2.94c-.98-1.38-1.66-2.97-2.02-4.79-.37-1.82-.55-4.13-.55-6.95v-32.21h-7.7v-6.93h7.7Z"/><path class="b" d="M529.42,139.59V65.35h7.53v30.03h.35c.24-.85,.56-1.71,.99-2.58,.43-.87,1.07-1.81,1.94-2.82,.86-1.01,1.85-1.91,2.95-2.7,1.1-.79,2.51-1.45,4.24-1.97,1.73-.52,3.61-.78,5.63-.78,5.08,0,9.17,1.54,12.28,4.63,3.11,3.08,4.66,7.52,4.66,13.31v37.14h-7.61v-34.53c0-4.3-1.02-7.62-3.06-9.96-2.04-2.34-4.89-3.51-8.56-3.51-4.4,0-7.8,1.65-10.21,4.96-2.41,3.31-3.61,7.52-3.61,12.64v30.41h-7.53Z"/><path class="b" d="M612.3,140.49c-6.57,0-11.72-2.13-15.45-6.38-3.72-4.25-5.59-10-5.59-17.24v-8.78c0-7.12,1.91-12.82,5.72-17.12,3.81-4.3,8.73-6.45,14.74-6.45s10.93,2.15,14.74,6.45c3.81,4.3,5.72,10.01,5.72,17.12v6.64h-33.36v2.75c0,4.59,1.18,8.37,3.54,11.34,2.36,2.97,5.67,4.46,9.92,4.46,2.93,0,5.39-.64,7.37-1.92,1.98-1.28,3.25-2.82,3.81-4.63h7.97c-.24,1.52-.79,3.04-1.67,4.55-.88,1.52-2.07,2.99-3.56,4.41-1.5,1.42-3.46,2.58-5.87,3.46-2.42,.88-5.1,1.33-8.03,1.33Zm-13.47-32.02h25.74v-.95c0-3.16-.54-5.94-1.61-8.35-1.07-2.4-2.58-4.25-4.53-5.53s-4.2-1.92-6.75-1.92c-3.84,0-6.95,1.43-9.31,4.29-2.36,2.86-3.54,6.7-3.54,11.5v.95Z"/><path class="b" d="M654.25,139.59v-54.22h7.48v8.4h.4c.85-2.44,2.39-4.57,4.62-6.4,2.23-1.83,5.38-2.75,9.46-2.75,.62,0,1.6,.06,2.95,.19v7.49c-.73-.13-2.02-.19-3.87-.19-2.94,0-5.44,.61-7.5,1.83-2.07,1.22-3.59,2.8-4.58,4.74-.98,1.94-1.47,4.17-1.47,6.66v34.25h-7.48Z"/><path class="b" d="M710.81,140.49c-2.38,0-4.59-.41-6.65-1.23s-3.78-1.94-5.19-3.37-2.52-3.17-3.34-5.24c-.82-2.07-1.23-4.36-1.23-6.86,0-3.16,.66-5.91,1.98-8.25,1.32-2.34,3.32-4.18,6.01-5.53s5.89-2.02,9.61-2.02h13.47v-5.55c0-3.6-.98-6.28-2.93-8.02-1.95-1.74-4.7-2.61-8.25-2.61-5.81,0-9.36,2.17-10.65,6.5h-7.3c.41-4.55,2.22-7.99,5.43-10.32,3.21-2.33,7.5-3.49,12.87-3.49s9.86,1.45,13.29,4.34c3.43,2.89,5.15,7.39,5.15,13.5v37.24h-7.35v-7.31h-.26c-3.17,5.47-8.05,8.21-14.65,8.21Zm1.89-7.02c3.61,0,6.64-1.19,9.09-3.56,2.45-2.37,3.67-5.33,3.67-8.87v-6.31h-13.29c-3.43,0-5.96,.82-7.57,2.47-1.61,1.65-2.42,3.81-2.42,6.5,0,3.16,1.03,5.58,3.08,7.26,2.05,1.68,4.53,2.51,7.44,2.51Z"/><path class="b" d="M779.22,140.49c-7.22,0-12.04-2.97-14.48-8.92h-.35v26.99h-7.52V85.36h7.13v8.59h.4c.91-2.69,2.68-4.93,5.3-6.74,2.62-1.8,5.92-2.7,9.88-2.7,5.87,0,10.55,2.07,14.06,6.21,3.51,4.14,5.26,9.74,5.26,16.79v9.96c0,7.12-1.78,12.73-5.35,16.84-3.56,4.11-8.34,6.17-14.32,6.17Zm-1.01-7.21c4.02,0,7.22-1.5,9.62-4.51,2.39-3,3.59-7.43,3.59-13.28v-6.02c0-5.79-1.2-10.19-3.59-13.21-2.39-3.02-5.69-4.53-9.9-4.53s-7.52,1.46-9.92,4.39c-2.41,2.93-3.61,6.89-3.61,11.88v10.06c0,4.43,1.26,8.07,3.79,10.93,2.52,2.86,5.87,4.29,10.03,4.29Z"/><path class="b" d="M819.85,68.48c0-1.77,.55-3.23,1.65-4.39,1.1-1.15,2.44-1.73,4.03-1.73s3,.58,4.07,1.73c1.07,1.15,1.61,2.62,1.61,4.39,0,1.2-.24,2.26-.73,3.18-.48,.92-1.17,1.62-2.05,2.11-.88,.49-1.85,.74-2.9,.74-1.58,0-2.93-.57-4.03-1.71-1.1-1.14-1.65-2.58-1.65-4.32Zm1.94,71.11v-54.22h7.53v54.22h-7.53Z"/><path class="b" d="M873.16,140.49c-6.57,0-11.72-2.13-15.45-6.38-3.72-4.25-5.59-10-5.59-17.24v-8.78c0-7.12,1.91-12.82,5.72-17.12,3.81-4.3,8.73-6.45,14.74-6.45s10.93,2.15,14.74,6.45c3.81,4.3,5.72,10.01,5.72,17.12v6.64h-33.36v2.75c0,4.59,1.18,8.37,3.54,11.34,2.36,2.97,5.67,4.46,9.92,4.46,2.93,0,5.39-.64,7.37-1.92,1.98-1.28,3.25-2.82,3.81-4.63h7.97c-.24,1.52-.79,3.04-1.67,4.55-.88,1.52-2.07,2.99-3.56,4.41-1.5,1.42-3.46,2.58-5.87,3.46-2.42,.88-5.1,1.33-8.03,1.33Zm-13.47-32.02h25.74v-.95c0-3.16-.54-5.94-1.61-8.35-1.07-2.4-2.58-4.25-4.53-5.53-1.95-1.28-4.2-1.92-6.75-1.92-3.84,0-6.95,1.43-9.31,4.29-2.36,2.86-3.54,6.7-3.54,11.5v.95Z"/></g><g><ellipse class="b" cx="10.24" cy="83.57" rx="4.76" ry="5.13"/><ellipse class="b" cx="49.97" cy="235.18" rx="4.76" ry="5.13"/><path class="b" d="M124.5,259.87c-.23-65.4-.46-130.85-.69-196.3V2.2c21.93,1.08,27.12,2.82,37.76,8,10.79,5.25,16.6,10.88,25.72,19.02C171.01,9.66,148.9,1.5,123.37,.27c-1.87-.28-4.26-.34-7.04-.17h-.06c-13.83,.84-37.34,7.24-55.9,19.7-20.95,14.07-37.28,32.61-48.19,56.57,1.04,.94,1.81,1.42,2.54,.26,.38-.61,.65-1.3,.97-1.95,10.61-21.62,25.46-38.99,44.78-51.88,13.86-9.25,28.81-15.48,44.83-18.71,1.18-.24,2.38-.35,3.57-.52-.17,1.4-.62,2.19-1.2,2.84-2.51,2.83-4.13,6.11-5.05,9.92-1.36,5.65-2.27,11.31-1.71,17.17,.2,2.05,.02,3.79-2.03,4.97-.81,.46-1.48,2.02-1.51,3.09-.1,4.18-.07,8.38,.25,12.54,.1,1.27,1.26,2.46,1.99,3.65,.73,1.2,1.56,2.32,2.3,3.52,1.12,1.83,1.92,4,3.36,5.44,1.38,1.38,2.14,2.75,2.31,4.68,.24,2.82,.62,5.63,.79,8.46,.09,1.55-.12,3.12-.2,4.6-.97,.36-1.61,.64-2.26,.83-6.48,1.9-12.32,5.27-17.8,9.32-1.61,1.19-3.15,1.76-5.04,1.87-7.54,.42-13.58,3.87-18.01,10.53-4.58,6.88-7.15,14.59-7.82,22.97-.19,2.39-.9,4.15-2.37,5.84-3.72,4.27-6.37,9.3-8.45,14.68-3.01,7.82-4.73,15.96-5.01,24.41-.08,2.51-.75,4.25-2.58,5.96-6.45,6-11.19,13.3-13.52,22.25-.24,.91-.58,1.79-1,3.04-.78-1.06-1.42-1.75-1.87-2.56-2.32-4.1-4.83-8.1-6.85-12.37C1.08,160.57-1.5,128.74,7.61,95.79c.26-.94,.72-1.88,.73-2.83,0-.6-.37-1.63-1.17-2.05-6.35,14.57-10.34,44.8-3.87,72.28,6.44,27.34,19.7,50.04,39.83,68.56,1.85-3.41-1.99-3.67-2.01-6.21,.48-.71,1.19-1.8,1.93-2.86,7.2-10.39,13.86-21.12,18.68-33.07,.41-1,1-1.93,1.59-2.83,5.7-8.74,10.12-18.14,12.72-28.49,.15-.58,.54-1.09,.99-1.98,.37,1.65,.63,2.85,.89,4.04,1.29,5.79,2.98,11.47,6.07,16.4,2.31,3.68,2.99,7.62,3.33,11.79,.14,1.72,.19,3.44,.29,5.17,.78,13.87-.86,27.55-2.79,41.53-1.18,5.94-2.16,11.62-5.72,16.69-3.27-1.58-6.44-2.93-9.47-4.61-4.06-2.25-8.02-4.73-12-7.14-1.02-.62-2-1.42-2.91,.14,8.21,10.17,44.67,22.99,63.96,23.27-.05,0-.1,0-.16,.01,.13,0,.26,0,.39,0,.76,0,1.5,0,2.21-.04,21.55-.45,42.96-7.46,61.07-20.07-18.05,9.34-37.72,15.01-57.7,16.39Zm-13.41-183.68c-2.11-2.71-2.11-5.38-.18-7.63,2.8-3.27,6.04-5.42,10.41-4.76-3.5,4.24-6.86,8.32-10.23,12.4Zm10.8,11.51c-1.63-2.62-3.14-5.05-4.85-7.8,.79-1.25,1.8-2.85,2.8-4.45,.64-1.18,1.04-1.92,1.44-2.65,.77,4.9,.61,9.79,.61,14.9Zm-1.87-20c.57-.24,.67-.38,.78-.53h0c-.11,.14-.21,.28-.33,.41,.01,0,.04,.01,.11,.04,.16-.11,.19-.28,.22-.45-.03,.17-.06,.34-.09,.51-.34,.71-.23,1.61-.51,2.34-1.86,4.86-4.69,8.96-8.52,12.24-.32,.28-.77,.38-1.23,.6,.06-4.05,3.84-9.98,9.55-15.16Zm-7.9,16.75c1.17-.7,2.18-1.7,3.64-2.87,1.13,1.23,2.54,2.21,3.22,3.6,1.68,3.46,2.9,7.15,2.93,11.14,.05,6.23,.03,12.47,.04,18.71-.17,.96-.37,1.35-.56,1.69-2.77-3.63-4.58-8.03-5.85-12.5-1.49-5.23-2.33-10.65-3.68-15.92-.23-.88-.51-1.8-1.06-2.5,.29-.53,.71-.97,1.32-1.34Zm-8.78-25.13c-.32-1.08-1.13-2.24-2.02-2.84-1.6-1.08-2-2.62-2.05-4.38-.08-2.7,0-5.41-.08-8.12-.06-2.11,.28-3.82,2.3-4.89,.63-.33,1.01-1.54,1.2-2.42,.2-.93,.13-1.97,.04-2.94-.54-6.11,.56-11.99,2.02-17.84,1.7-6.8,7.81-12.37,14.39-13.23l.18-.08c.22-.07,.44-.06,.66-.1,.13-.02,.27-.04,.4-.06,.33-.15,.68-.18,1.04-.19V61.92c-.14-.08-.26-.19-.37-.32-.09-.04-.17-.07-.26-.11,0,0,0,0-.01,0-.08,0-.16-.01-.24,0-.35,.06-.78,0-1.14,0-.15,0-.27-.03-.4-.07-1.42,.35-2.84,.74-4.12,1.42-2.1,1.12-3.85,3-5.75,4.54-3.13-2.12-4.81-4.76-5.8-8.06Zm3.66,27.88c1.19-.37,1.98,.05,2.74,.89,.02,.01,.03,.01,.06,.02,.68,1.08,1.1,2.41,1.45,3.66,1.13,4.03,2.25,8.05,3.38,12.08,.78,2.79,1.57,5.59,2.83,8.18,.99,2.03,2.31,3.93,3.98,5.38,.19,.79,.52,1.44,.52,2.08,.06,8.12,.04,16.24,.04,24.96-.86-.89-1.45-1.35-1.87-1.95-2.28-3.32-3.5-7.16-4.52-11.09-1.51-5.8-2.93-11.64-4.68-17.36-.99-3.25-2.37-6.42-3.93-9.4-2.65-5.05-5.51-10.01-11.32-12.16,3.75-2.64,7.48-4.1,11.33-5.29Zm-8.99,8.27c1.23,.83,2.35,1.97,3.28,3.18,5.35,7,8.28,15.19,10.32,23.9,1.31,5.59,2.89,11.14,4.81,16.52,.86,2.41,2.87,4.35,4.32,6.53,.5,.75,1.25,1.56,1.27,2.37,.13,3.93,.06,7.86,.06,12.34-1.03-.58-1.77-.81-2.27-1.31-4.37-4.35-6.44-10.1-8.07-16.04-1.37-4.95-2.45-9.99-3.67-15-1.53-4.87-2.67-9.29-4.36-13.44-2.88-7.07-7.52-12.58-13.79-16.43-.37-.23-.69-.55-1.04-.84,3.56-4.08,5.22-4.44,9.15-1.78Zm-9.08,4.28c1.22,.81,2.23,1.33,3.07,2.07,4.74,4.21,8.78,9.09,10.75,15.45,2.09,6.75,3.76,13.65,5.62,20.48,.07,.76,.16,.94,.25,1.11l-.46,.1c-5.71-3-11.59-4.21-17.72-4.18-5.68,.03-10.64-2.24-15.63-5.81,.89-.94,1.63-1.78,2.42-2.56,5.22-5.07,8.98-11.13,10.59-18.56,.54-2.48,.7-5.06,1.11-8.11Zm-2.23,2.22c-1.36,13.62-8.1,22.7-18.84,28.72-1.19,.67-2.56,.98-3.85,1.46-.52-.18-.51-.23-.51-.23h0c.97-1,1.91-1.98,2.92-2.94,7.67-7.28,13.9-15.76,18.6-25.55,.18-.39,.97-.93,1.69-1.45Zm-2.07-1.69c-.25,.72-.43,1.47-.76,2.14-5.01,10.23-11.54,19.17-19.61,26.8-.85,.8-1.87,1.38-2.82,2.06-.7,.09-.96,0-1.22-.1,1.95-4.02,3.39-7.94,5.51-11.37,4.13-6.69,9.39-12.36,15.08-17.54,1.02-.92,2.24-1.58,3.81-1.99Zm-24.25,22.53c1.23-5.3,3.43-10.12,6.33-14.61,3.21-4.97,7.67-7.75,12.97-9.17,.13-.02,.3-.07,.5-.14h.03c.72-.3,1.76-.76,2.45-.02-9.12,7.87-17.21,16.33-22.37,27.78-.13,.08-.17,.08-.19,.08,.05-1.3,0-2.65,.28-3.92Zm-1.52,8.3h0Zm-13.18,29.67c.4-1.98,.67-4.04,1.29-5.97,2.13-6.62,4.94-12.85,9.62-17.9,.5-.44,.63-.61,.79-.75,.55-.35,.84-.52,1.14-.7-.02,.28-.04,.56-.05,.84-.36,.45-.47,.65-.64,.82-.8,1.12-1.43,2.11-2.03,3.08h0c-3.42,4.31-6.03,10.81-8.1,15.92-.59,1.45-.96,3.04-1.69,4.63-.2,.12-.32,.02-.32,.02h0Zm9.03,10.4c-.45,.96-1.03,2.4-1.24,3.31-2.57,4.13-3.72,9.57-3.43,14.36-.1,.02-.2,.03-.29,.04-1.12,.74-1.8,1.45-2.81,2.51-.86-3.29-.22-6.95-.02-9.57h0c1-3.39,1.69-6.6,2.92-9.56,1.08-2.62,2.15-5.45,4.62-7.18,.16,.56,.2,.86,.24,1.15,.22,.71,.33,.94,.45,1.17-.17,1.51-.3,2.65-.43,3.77Zm.43,1.87c-.24,5.74-.82,10.95-3.99,15.31,.33-2.88,.64-5.51,1.13-8.09,.32-1.68,1.18-4.34,1.46-6.08,.4-.76,.73-1.36,1.33-1.29,.02,.05,.05,.1,.07,.15Zm-9.7-2.77c.38-6.25,2.53-11.88,4.92-17.37,1.17-2.69,2.8-5.12,4.21-7.67-.02,0,.03-.02,.03-.02,.02-.09,.1-.08,.2-.05-.22,.09-.24,.07-.24,.07-.23,4.48-.41,8.99-.82,13.48-.08,.93-.92,1.84-1.52,2.66-2.11,2.87-4.28,5.69-6.42,8.54-.4,1-.67,1.53-1.25,2.69,.58-1.16,.84-1.69,.87-2.33Zm-1.54,10.85c.9-5.72,3.2-10.74,6.81-15.06,.45-.16,.45-.13,.45-.13h0c.04,.1,.07,.19,.09,.24-.17,.92-.37,1.62-.72,2.22-2.49,4.21-3.98,8.81-4.51,13.73h0v.04s0,.05-.01,.07h0c-.3,3.16-.16,6.41-.16,9.57-2.38-3.28-2.53-6.95-1.95-10.68Zm-17.79,27.79c-.35-.55-.15-1.65,.03-2.42,2.43-10.09,7.41-18.43,14.95-24.97,.52-.04,.58-.05,.63-.06,.4,3.92,1.01,7.87,1.74,12.6-5.38,5.5-9.52,12.86-11.91,21.76-2.45-2.07-3.93-4.53-5.45-6.91Zm13.42,15.91c-2.51-1.85-4.35-4.15-6.1-6.51-.38-.51-.3-1.66-.08-2.4,.59-1.99,1.36-3.91,2.06-5.86,2.74-6.26,6.09-11.35,10.66-15.42,3.93-3.5,8.29-5.97,14.02-6.59-5.27,13.56-12.75,25.06-20.57,36.77Zm36.07-73.57c-2.56,12.38-6.88,23.95-13.75,34.32-2.34,.34-4.67,.69-7.21,1.06,.7-2.65,1.32-4.99,1.94-7.34,.67-7.29,0-13.89-.7-20.5-.74-6.92,.65-13.46,3.45-19.69,1.15-2.57,2.88-4.26,5.54-5.05,2.38-.71,4.63-1.94,7.22-3.06,1.25,6.28,2.47,12.36,3.65,18.45,.11,.57-.01,1.23-.14,1.82Zm-.4-13.63c-.36-2.03-.88-4.02-1.44-6.55,.9,.42,1.49,.58,1.97,.92,5,3.64,10.58,4.81,16.51,5.05,3.27,.13,6.54,.84,9.77,1.5,1.43,.29,2.83,.97,4.12,1.71,2.15,1.24,3.85,2.94,4.48,5.7,.41,1.77,1.19,3.44,1.8,5.16,.15,.72,.25,.89,.36,1.07-.16,.04-.32,.07-.49,.11-7.27-3.88-14.89-5.04-22.63-5.73-2.6-.23-5.24-.59-7.73-1.39-3.44-1.11-5.99-3.43-6.72-7.54Zm1.59,6.52c4.81,3.71,9.73,3.69,14.58,4.27,4.41,.53,8.8,1.42,13.13,2.47,4.79,1.15,8.88,3.78,12.22,7.71,.77,.91,1.48,2.02,2.45,2.55,2.21,1.23,2.72,3.27,2.52,5.55-.31,3.66-.87,7.29-1.32,10.93-.32,.97-.52,1.41-.71,1.85-.15-.09-.28-.11-.31-.19-3.36-9.42-10.77-12.86-19.09-14.71-4.57-1.02-9.24-1.55-13.85-2.37-1.23-.22-2.45-.6-3.61-1.08-2.01-.83-3.4-2.12-3.73-4.74-.49-3.85-1.4-7.64-2.28-12.26Zm9.88,33.17c-3.13-4.45-4.72-9.71-6.4-15.62,6.99,3.09,13.96,3.26,20.66,4.86,4.29,1.02,8.29,2.73,11.75,5.7,.98,.83,1.95,1.74,2.7,2.79,3.01,4.19,4.35,8.55,1.23,13.5-1.79,2.84-3.23,5.93-4.83,8.91-.32,.43-.6,.73-.84,.98,.17-.19,.32-.37,.41-.57-1.61-2-2.84-4.06-4.36-5.84-4.19-4.89-9.69-7.47-15.39-9.6,.01,.68,.07,1.21,.44,1.78,7.78,2.96,14.34,7.14,18.14,15-2.68,5.11-6.54,8.3-10.94,11.83-.56-9.75-2.45-18.55-7.14-26.43-.43-.97-.49-1.5-.55-2.03-1.58-1.94-3.53-3.35-4.87-5.26Zm2.19,6.92c.25-.23,.5-.45,.75-.68,.26,.62,.53,1.24,.79,1.87,13.18,22.77,4.94,51.43-6.1,61.62,4.72-20.66,6.73-41.55,4.56-62.81Zm-1.79,70.67c-1.58-.59-2.66-.98-3.72-1.42-.19-.08-.32-.34-.66-.74,5.76-5.85,10.06-12.83,13.27-20.76,2.75,12.17,8.29,21.93,18.69,28.03-3.67,1.07-16.96-1.43-27.58-5.11Zm14.22-12.98c-.83-1.75-1.42-3.62-2.12-5.44-.49-1.74-.81-2.91-1.13-4.09-.79-2.87-.95-5.68-.26-8.67,.79-3.44,1.07-7.01,1.61-10.76,5.66-3.32,10.11-8.35,13.91-14.1,3.69-5.59,6.43-11.73,9.02-18.03v79.29c-1.35-.31-2.55-.46-3.66-.87-8.16-3-13.55-9.27-17.36-17.33Z"/></g><rect class="b" x="143.26" y="155.72" width="748.55" height="3.08"/><g><path class="b" d="M151.76,189.88h-2.76l8.24-25.11h2.6l8.21,25.11h-2.89l-2.37-7.74h-8.66l-2.37,7.74Zm6.76-21.49h-.09l-3.53,11.37h7.15l-3.53-11.37Z"/><path class="b" d="M204.04,189.88v-19.31h2.62v3.56h.17c.75-2.58,2.53-3.87,5.34-3.87,1.84,0,3.3,.54,4.38,1.63s1.62,2.66,1.62,4.72v13.27h-2.63v-12.35c0-1.54-.35-2.72-1.04-3.53-.69-.81-1.67-1.22-2.93-1.22-1.6,0-2.82,.59-3.66,1.77s-1.25,2.68-1.25,4.5v10.83h-2.62Z"/><path class="b" d="M257.14,170.57v-4.85h2.63v4.85h4v2.47h-4v11.61c0,.8,.09,1.41,.27,1.83,.18,.42,.47,.71,.88,.88,.41,.16,.99,.25,1.76,.25,.47,0,.92-.02,1.36-.07v2.38c-.41,.09-1.09,.13-2.03,.13-1.02,0-1.85-.1-2.49-.31-.64-.21-1.13-.56-1.48-1.05s-.58-1.06-.71-1.71c-.13-.65-.19-1.47-.19-2.48v-11.47h-2.7v-2.47h2.7Z"/><path class="b" d="M307.5,170.26c2.2,0,3.99,.75,5.38,2.25,1.39,1.5,2.08,3.56,2.08,6.18v3.06c0,2.63-.7,4.69-2.09,6.19-1.4,1.5-3.18,2.25-5.36,2.25s-4.03-.75-5.41-2.24c-1.38-1.49-2.06-3.56-2.06-6.21v-3.06c0-2.53,.7-4.57,2.11-6.12,1.41-1.54,3.19-2.32,5.36-2.32Zm-4.85,8.75v2.42c0,1.27,.19,2.37,.58,3.29,.38,.93,.94,1.64,1.67,2.15,.73,.51,1.6,.76,2.6,.76,1.51,0,2.69-.56,3.53-1.67,.85-1.12,1.27-2.62,1.27-4.53v-2.42c0-1.88-.43-3.38-1.3-4.5-.87-1.12-2.03-1.68-3.5-1.68s-2.64,.57-3.53,1.7c-.89,1.13-1.33,2.63-1.33,4.49Z"/><path class="b" d="M352.27,189.88v-19.31h2.62v3.56h.17c.75-2.58,2.53-3.87,5.34-3.87,1.84,0,3.3,.54,4.38,1.63,1.08,1.09,1.62,2.66,1.62,4.72v13.27h-2.63v-12.35c0-1.54-.35-2.72-1.04-3.53-.69-.81-1.67-1.22-2.93-1.22-1.6,0-2.82,.59-3.66,1.77-.84,1.18-1.25,2.68-1.25,4.5v10.83h-2.62Z"/><path class="b" d="M404.24,164.55c0-.63,.19-1.15,.58-1.56,.39-.41,.85-.61,1.41-.61s1.05,.2,1.42,.61c.37,.41,.56,.93,.56,1.56,0,.43-.08,.81-.25,1.13-.17,.33-.41,.58-.72,.75-.31,.17-.65,.26-1.02,.26-.55,0-1.02-.2-1.41-.61-.39-.41-.58-.92-.58-1.54Zm.68,25.33v-19.31h2.63v19.31h-2.63Z"/><path class="b" d="M452.78,170.26c2.2,0,3.99,.75,5.38,2.25,1.39,1.5,2.08,3.56,2.08,6.18v3.06c0,2.63-.7,4.69-2.1,6.19-1.4,1.5-3.18,2.25-5.36,2.25s-4.03-.75-5.41-2.24c-1.38-1.49-2.06-3.56-2.06-6.21v-3.06c0-2.53,.7-4.57,2.11-6.12,1.41-1.54,3.19-2.32,5.36-2.32Zm-4.85,8.75v2.42c0,1.27,.19,2.37,.58,3.29,.38,.93,.94,1.64,1.67,2.15,.73,.51,1.6,.76,2.6,.76,1.51,0,2.69-.56,3.54-1.67,.85-1.12,1.27-2.62,1.27-4.53v-2.42c0-1.88-.43-3.38-1.3-4.5-.87-1.12-2.03-1.68-3.5-1.68s-2.64,.57-3.53,1.7c-.89,1.13-1.33,2.63-1.33,4.49Z"/><path class="b" d="M537.51,189.88v-25.11h8.47c1.88,0,3.4,.55,4.55,1.66,1.16,1.1,1.73,2.61,1.73,4.53,0,1.45-.32,2.64-.96,3.57-.64,.93-1.53,1.59-2.67,1.99v.1c.79,.15,1.5,.39,2.13,.74,.63,.35,1.15,.79,1.56,1.33,.41,.54,.72,1.16,.93,1.87,.22,.7,.32,1.47,.32,2.29,0,2.25-.73,3.99-2.18,5.2-1.45,1.22-3.39,1.82-5.8,1.82h-8.09Zm2.69-22.47v8.23h3.59c1.95,0,3.4-.33,4.34-.98,.94-.65,1.41-1.72,1.41-3.21,0-1.35-.37-2.36-1.1-3.03-.73-.67-1.68-1.01-2.85-1.01h-5.39Zm0,10.86v8.94h4.07c.81,0,1.52-.03,2.13-.09,.61-.06,1.2-.19,1.78-.37,.57-.19,1.05-.43,1.43-.73,.37-.3,.67-.72,.9-1.23,.23-.52,.34-1.14,.34-1.86,0-1.52-.45-2.68-1.33-3.46-.89-.79-2.09-1.18-3.6-1.18h-5.71Z"/><path class="b" d="M595.36,190.2c-.83,0-1.61-.15-2.33-.44-.72-.29-1.32-.69-1.82-1.2s-.88-1.13-1.17-1.87c-.29-.74-.43-1.55-.43-2.44,0-1.13,.23-2.11,.69-2.94,.46-.83,1.16-1.49,2.1-1.97,.94-.48,2.06-.72,3.36-.72h4.71v-1.98c0-1.28-.34-2.23-1.02-2.86-.68-.62-1.65-.93-2.89-.93-2.03,0-3.27,.77-3.73,2.32h-2.56c.14-1.62,.78-2.85,1.9-3.67,1.12-.83,2.63-1.24,4.5-1.24s3.45,.51,4.65,1.55c1.2,1.03,1.8,2.63,1.8,4.81v13.27h-2.57v-2.6h-.09c-1.11,1.95-2.82,2.92-5.13,2.92Zm.66-2.5c1.26,0,2.32-.42,3.18-1.27,.86-.85,1.29-1.9,1.29-3.16v-2.25h-4.65c-1.2,0-2.08,.29-2.65,.88-.57,.59-.85,1.36-.85,2.32,0,1.13,.36,1.99,1.08,2.59,.72,.6,1.59,.9,2.6,.9Z"/><path class="b" d="M649.08,190.2c-2.53,0-4.21-1.06-5.07-3.18h-.12v9.61h-2.63v-26.07h2.5v3.06h.14c.32-.96,.94-1.76,1.86-2.4,.92-.64,2.07-.96,3.46-.96,2.05,0,3.69,.74,4.92,2.21,1.23,1.48,1.84,3.47,1.84,5.98v3.55c0,2.54-.62,4.53-1.87,6-1.25,1.46-2.92,2.2-5.01,2.2Zm-.35-2.57c1.41,0,2.53-.54,3.36-1.61,.84-1.07,1.26-2.65,1.26-4.73v-2.15c0-2.06-.42-3.63-1.26-4.71-.84-1.08-1.99-1.61-3.46-1.61s-2.63,.52-3.47,1.56c-.84,1.04-1.26,2.45-1.26,4.23v3.58c0,1.58,.44,2.88,1.33,3.9s2.05,1.53,3.51,1.53Z"/><path class="b" d="M694.2,170.57v-4.85h2.63v4.85h4v2.47h-4v11.61c0,.8,.09,1.41,.27,1.83,.18,.42,.47,.71,.88,.88,.41,.16,.99,.25,1.76,.25,.47,0,.93-.02,1.36-.07v2.38c-.41,.09-1.09,.13-2.03,.13-1.02,0-1.85-.1-2.49-.31-.64-.21-1.13-.56-1.48-1.05-.34-.49-.58-1.06-.71-1.71-.13-.65-.19-1.47-.19-2.48v-11.47h-2.7v-2.47h2.7Z"/><path class="b" d="M737.71,164.55c0-.63,.19-1.15,.58-1.56,.39-.41,.86-.61,1.41-.61s1.05,.2,1.43,.61c.37,.41,.56,.93,.56,1.56,0,.43-.09,.81-.25,1.13-.17,.33-.41,.58-.72,.75-.31,.17-.65,.26-1.02,.26-.55,0-1.02-.2-1.41-.61-.39-.41-.58-.92-.58-1.54Zm.68,25.33v-19.31h2.63v19.31h-2.63Z"/><path class="b" d="M778.79,176.06c0-1.9,.61-3.35,1.84-4.33,1.23-.98,2.75-1.47,4.57-1.47,.91,0,1.76,.13,2.53,.4s1.42,.64,1.95,1.11c.53,.47,.95,1.03,1.23,1.68,.29,.65,.43,1.37,.43,2.14h-2.46c-.04-.49-.2-.96-.46-1.39-.27-.43-.69-.8-1.28-1.11-.58-.3-1.27-.45-2.06-.45-.73,0-1.37,.12-1.93,.35s-.99,.59-1.32,1.07c-.32,.48-.48,1.04-.48,1.67,0,.45,.08,.84,.25,1.17s.36,.58,.58,.77c.22,.18,.53,.36,.95,.53,.42,.17,.76,.28,1.02,.34s.66,.14,1.17,.25c.04,0,.08,0,.12,.02,.03,.01,.07,.02,.11,.02s.08,.02,.12,.05c.62,.11,1.15,.23,1.6,.35s.93,.27,1.43,.46c.5,.19,.92,.41,1.26,.67,.34,.26,.66,.57,.96,.93s.52,.79,.66,1.28c.14,.5,.21,1.05,.21,1.66,0,1.87-.63,3.33-1.89,4.39-1.26,1.06-2.93,1.59-5,1.59-1.92,0-3.47-.46-4.66-1.39-1.18-.93-1.78-2.24-1.78-3.93h2.59c.26,1.93,1.58,2.89,3.97,2.89,.95,0,1.74-.15,2.38-.44,.64-.29,1.1-.67,1.38-1.12,.28-.46,.42-1,.42-1.63,0-.43-.08-.81-.24-1.13s-.35-.59-.58-.79c-.23-.2-.56-.39-1.01-.57-.45-.18-.84-.31-1.17-.39-.33-.08-.81-.19-1.43-.34-.81-.18-1.45-.33-1.93-.46-.47-.13-1.01-.33-1.6-.62-.6-.28-1.05-.59-1.36-.94-.31-.34-.57-.79-.78-1.34-.21-.54-.32-1.2-.32-1.95Z"/><path class="b" d="M829.8,170.57v-4.85h2.63v4.85h4v2.47h-4v11.61c0,.8,.09,1.41,.27,1.83,.18,.42,.47,.71,.88,.88,.41,.16,.99,.25,1.76,.25,.47,0,.93-.02,1.36-.07v2.38c-.41,.09-1.09,.13-2.03,.13-1.02,0-1.85-.1-2.49-.31-.64-.21-1.13-.56-1.48-1.05-.34-.49-.58-1.06-.71-1.71-.13-.65-.19-1.47-.19-2.48v-11.47h-2.7v-2.47h2.7Z"/><path class="b" d="M878.27,190.2c-.83,0-1.61-.15-2.33-.44-.72-.29-1.32-.69-1.82-1.2s-.88-1.13-1.17-1.87c-.29-.74-.43-1.55-.43-2.44,0-1.13,.23-2.11,.69-2.94,.46-.83,1.16-1.49,2.1-1.97,.94-.48,2.06-.72,3.36-.72h4.71v-1.98c0-1.28-.34-2.23-1.02-2.86-.68-.62-1.65-.93-2.89-.93-2.03,0-3.27,.77-3.73,2.32h-2.56c.14-1.62,.78-2.85,1.9-3.67,1.12-.83,2.63-1.24,4.5-1.24s3.45,.51,4.65,1.55c1.2,1.03,1.8,2.63,1.8,4.81v13.27h-2.57v-2.6h-.09c-1.11,1.95-2.82,2.92-5.13,2.92Zm.66-2.5c1.26,0,2.32-.42,3.18-1.27,.86-.85,1.29-1.9,1.29-3.16v-2.25h-4.65c-1.2,0-2.08,.29-2.65,.88-.57,.59-.85,1.36-.85,2.32,0,1.13,.36,1.99,1.08,2.59,.72,.6,1.59,.9,2.6,.9Z"/></g></svg>